<?xml version="1.0" encoding="utf-8"?>
<!-- Generator: Adobe Illustrator 16.0.0, SVG Export Plug-In . SVG Version: 6.00 Build 0)  -->
<!DOCTYPE svg PUBLIC "-//W3C//DTD SVG 1.1//EN" "http://www.w3.org/Graphics/SVG/1.1/DTD/svg11.dtd">
<svg version="1.1" id="Layer_1" xmlns="http://www.w3.org/2000/svg" xmlns:xlink="http://www.w3.org/1999/xlink" x="0px" y="0px"
	 width="1064px" height="480.769px" viewBox="0 0 1064 480.769" enable-background="new 0 0 1064 480.769" xml:space="preserve">
<g>
	<g>
		<path fill="#4D4D4D" d="M404.578,263.692l-2.753-0.418c-19.675-2.973-25.991-5.649-25.991-11.011
			c0-4.124,1.866-17.578,25.878-17.578c11.652,0,20.775,5.104,24.398,13.656l2.767,6.522l17.405-7.743l-2.243-6.113
			c-5.836-15.903-22.054-25.781-42.327-25.781c-27.117,0-45.337,14.884-45.337,37.037c0,23.438,25.028,27.418,39.981,29.796
			c1.07,0.17,2.108,0.336,3.089,0.499c1.075,0.182,2.19,0.362,3.333,0.545c12.566,2.024,22.969,4.211,22.969,10.486
			c0,12.974-13.942,17.578-25.881,17.578c-11.924,0-20.036-4.528-24.106-13.456l-2.908-6.379l-17.731,8.231l2.771,6.255
			c7.294,16.462,21.416,24.807,41.975,24.807c27.541,0,45.338-14.536,45.338-37.036
			C445.204,269.796,420.756,266.123,404.578,263.692z"/>
		<rect x="454" y="216.363" fill="#4D4D4D" width="20" height="113"/>
		<polygon fill="#4D4D4D" points="507,310.363 507,216.363 486,216.363 486,329.363 566,329.363 566,310.363 		"/>
		<polygon fill="#4D4D4D" points="594,310.363 594,216.363 575,216.363 575,329.363 656,329.363 656,310.363 		"/>
		<polygon fill="#4D4D4D" points="872,235.363 872,216.363 784,216.363 784,329.363 872,329.363 872,310.363 804,310.363 
			804,275.363 859,275.363 859,256.363 804,256.363 804,235.363 		"/>
		<polygon fill="#4D4D4D" points="759.584,216.363 718.157,293.147 676.725,216.363 663,216.363 663,329.363 682,329.363 
			682,268.886 715.655,329.363 720.653,329.363 753,268.886 753,329.363 773,329.363 773,216.363 		"/>
		<polygon fill="#4D4D4D" points="971,329.363 971,216.363 952,216.363 952,290.509 894.181,216.363 881,216.363 881,329.363 
			900,329.363 900,255.342 958.125,329.363 		"/>
	</g>
	<g>
		<path fill="#4D4D4D" d="M435.439,460.233c-3.854,0.348-7.491,0.525-10.811,0.525c-34.387,0-50.052-19.823-50.052-38.24
			c0-18.506,15.665-38.424,50.052-38.424c3.371,0,7.006,0.177,10.804,0.524l7.103,0.649l1.308-19.433l-6.772-0.618
			c-4.279-0.393-8.35-0.582-12.441-0.582c-21.092,0-38.939,6.135-51.613,17.74c-11.54,10.57-17.896,24.827-17.896,40.143
			c0,15.309,6.359,29.537,17.909,40.062c12.66,11.539,30.505,17.636,51.6,17.636c4.043,0,8.11-0.189,12.439-0.581l6.774-0.614
			l-1.308-19.427L435.439,460.233z"/>
		<path fill="#4D4D4D" d="M503.889,364.265c-32.122,0-58.253,26.132-58.253,58.253s26.131,58.251,58.253,58.251
			c32.121,0,58.252-26.13,58.252-58.251S536.01,364.265,503.889,364.265z M503.889,461.31c-21.393,0-38.796-17.401-38.796-38.792
			c0-21.393,17.403-38.797,38.796-38.797c21.392,0,38.793,17.404,38.793,38.797C542.682,443.909,525.28,461.31,503.889,461.31z"/>
		<path fill="#4D4D4D" d="M727.365,460.233c-3.852,0.348-7.489,0.525-10.81,0.525c-34.387,0-50.049-19.823-50.049-38.24
			c0-18.506,15.662-38.424,50.049-38.424c3.372,0,7.006,0.177,10.805,0.524l7.101,0.649l1.308-19.433l-6.771-0.618
			c-4.28-0.393-8.352-0.582-12.442-0.582c-21.093,0-38.939,6.135-51.614,17.74c-11.538,10.57-17.895,24.827-17.895,40.143
			c0,15.309,6.359,29.537,17.908,40.062c12.661,11.539,30.505,17.636,51.601,17.636c4.043,0,8.11-0.189,12.439-0.581l6.773-0.614
			l-1.308-19.427L727.365,460.233z"/>
		<polygon fill="#4D4D4D" points="813,365.363 813,405.363 765,405.363 765,365.363 746,365.363 746,479.363 765,479.363 
			765,425.363 813,425.363 813,479.363 833,479.363 833,365.363 		"/>
		<rect x="845" y="365.363" fill="#4D4D4D" width="19" height="114"/>
		<path fill="#4D4D4D" d="M1043.433,384.094c3.621,0,8.881,0.204,12.013,0.519l8.555,0.77v-19.587l-7.227-0.578
			c-4.281-0.393-8.799-0.582-12.89-0.582c-47.761,0-69.737,29.812-69.737,57.512c0,27.613,21.639,57.331,69.399,57.331
			c4.032,0,8.942-0.19,13.274-0.58l7.18-0.573v-53.962h-19v35.652c-26-0.227-50.488-12.098-50.488-37.868
			C994.512,396.003,1019.326,384.094,1043.433,384.094z"/>
		<polygon fill="#4D4D4D" points="967,479.363 967,365.363 948,365.363 948,440.098 888.314,365.363 876,365.363 876,479.363 
			896,479.363 896,404.933 951.943,479.363 		"/>
		<path fill="#4D4D4D" d="M598.267,365.363l-42.773,114h20.823l7.846-21h40.577l8.21,21h20.719l-42.746-114H598.267z
			 M591.406,439.363l13.113-34.854l12.797,34.854H591.406z"/>
	</g>
</g>
<g>
	<path fill="#4D4D4D" d="M271.258,215.363h-51.814H205.44c0,0-10.949-84.785,0.126-109.788
		c6.668-15.055,19.986-27.248,19.986-45.011c0-33.271-27.754-60.355-59.836-60.564c-33.221,0.208-60.088,27.142-60.088,60.412
		c0,17.764,13.189,30.132,19.857,45.189c11.078,25,0,109.762,0,109.762h-11.457H59.921C26.523,215.363,0,241.613,0,275.011v27.352
		h5.611h319.953H332v-27.352C332,241.613,304.655,215.363,271.258,215.363z M81.947,274.119c-6.959,0-12.604-5.645-12.604-12.604
		c0-6.961,5.646-12.604,12.604-12.604s12.604,5.644,12.604,12.604C94.551,268.474,88.906,274.119,81.947,274.119z M165.585,36.561
		c0.093,0,0.11,0.014,0.204,0.014c0,0-0.045-0.014,0.049-0.014c13.641,0,24.492,11.062,24.492,24.704
		c0,13.581-10.854,24.599-24.41,24.698c-13.596-0.054-24.889-11.091-24.889-24.699C141.031,47.622,151.944,36.561,165.585,36.561z
		 M165.588,274.119c-6.957,0-12.602-5.645-12.602-12.604c0-6.961,5.645-12.604,12.602-12.604c6.961,0,12.604,5.644,12.604,12.604
		C178.192,268.474,172.549,274.119,165.588,274.119z M246.941,274.119c-6.961,0-12.605-5.645-12.605-12.604
		c0-6.961,5.645-12.604,12.605-12.604c6.958,0,12.604,5.644,12.604,12.604C259.545,268.474,253.899,274.119,246.941,274.119z"/>
	<g>
		<path fill="#00D9E3" d="M0,312.363v136.033v1.486c0,16.834,9.824,30.48,22.619,30.48H75v-168H0z"/>
		<rect x="87" y="312.363" fill="#53CB4C" width="73" height="168"/>
		<rect x="172" y="312.363" fill="#FFDD00" width="75" height="168"/>
		<path fill="#FF8BBE" d="M258,312.363v168h50.561c12.793,0,23.439-13.646,23.439-30.48v-1.486V312.363H258z"/>
	</g>
</g>
</svg>
