<?xml version="1.0" encoding="utf-8"?>
<!-- Generator: Adobe Illustrator 16.0.0, SVG Export Plug-In . SVG Version: 6.00 Build 0)  -->
<!DOCTYPE svg PUBLIC "-//W3C//DTD SVG 1.1//EN" "http://www.w3.org/Graphics/SVG/1.1/DTD/svg11.dtd">
<svg version="1.1" id="Layer_1" xmlns="http://www.w3.org/2000/svg" xmlns:xlink="http://www.w3.org/1999/xlink" x="0px" y="0px"
	 width="708.439px" height="1069.464px" viewBox="0 0 708.439 1069.464" enable-background="new 0 0 708.439 1069.464"
	 xml:space="preserve">
<g>
	<path fill="#4D4D4D" d="M520.522,339.058h-81.758h-22.094c0,0-17.276-133.349,0.2-172.799
		c10.521-23.754,31.535-42.777,31.535-70.806c0-52.497-43.793-95.124-94.414-95.453c-52.418,0.329-94.812,42.879-94.812,95.375
		c0,28.029,20.813,47.14,31.334,70.898c17.48,39.447,0,172.785,0,172.785h-18.079h-85.375c-52.697,0-95.621,42.284-95.621,94.982
		v42.018h9.93h504.844h11.227V434.04C617.439,381.342,573.221,339.058,520.522,339.058z M221.814,432.631
		c-10.98,0-19.888-8.905-19.888-19.888c0-10.982,8.907-19.887,19.888-19.887s19.887,8.905,19.887,19.887
		C241.701,423.726,232.795,432.631,221.814,432.631z M353.785,57.796c0.146,0,0.175,0.021,0.322,0.021c0,0-0.072-0.021,0.076-0.021
		c21.524,0,38.646,17.453,38.646,38.979c0,21.428-17.125,38.813-38.516,38.971c-21.453-0.086-39.273-17.5-39.273-38.973
		C315.041,75.248,332.262,57.796,353.785,57.796z M353.791,432.631c-10.979,0-19.885-8.905-19.885-19.888
		c0-10.982,8.905-19.887,19.885-19.887c10.982,0,19.887,8.905,19.887,19.887C373.678,423.726,364.773,432.631,353.791,432.631z
		 M482.154,432.631c-10.982,0-19.889-8.905-19.889-19.888c0-10.982,8.906-19.887,19.889-19.887c10.98,0,19.887,8.905,19.887,19.887
		C502.041,423.726,493.135,432.631,482.154,432.631z"/>
	<g>
		<path fill="#00D9E3" d="M91.439,492.058V707.62v2.345c0,26.562,16.574,48.094,36.764,48.094h82.236v-266H91.439z"/>
		<rect x="228.439" y="492.058" fill="#53CB4C" width="117" height="266"/>
		<rect x="363.439" y="492.058" fill="#FFDD00" width="119" height="266"/>
		<path fill="#FF8BBE" d="M500.439,492.058v266h78.941c20.188,0,38.059-21.531,38.059-48.094v-2.345V492.058H500.439z"/>
	</g>
</g>
<g>
	<path fill="#4D4D4D" d="M95.957,852.387l-2.752-0.418c-19.676-2.973-25.992-5.649-25.992-11.011
		c0-4.124,1.867-17.578,25.879-17.578c11.652,0,20.775,5.104,24.398,13.656l2.766,6.522l17.406-7.743l-2.244-6.113
		c-5.836-15.903-22.053-25.781-42.326-25.781c-27.117,0-45.338,14.884-45.338,37.037c0,23.438,25.029,27.418,39.982,29.796
		c1.07,0.17,2.107,0.336,3.088,0.499c1.076,0.182,2.191,0.362,3.334,0.545c12.566,2.024,22.969,4.211,22.969,10.486
		c0,12.974-13.943,17.578-25.881,17.578c-11.924,0-20.037-4.528-24.107-13.456l-2.908-6.379l-17.73,8.231l2.771,6.255
		c7.293,16.462,21.416,24.807,41.975,24.807c27.541,0,45.338-14.536,45.338-37.036C136.584,858.492,112.135,854.818,95.957,852.387z
		"/>
	<rect x="145.439" y="805.058" fill="#4D4D4D" width="20" height="113"/>
	<polygon fill="#4D4D4D" points="198.439,899.058 198.439,805.058 177.439,805.058 177.439,918.058 257.439,918.058 
		257.439,899.058 	"/>
	<polygon fill="#4D4D4D" points="285.439,899.058 285.439,805.058 266.439,805.058 266.439,918.058 347.439,918.058 
		347.439,899.058 	"/>
	<polygon fill="#4D4D4D" points="563.439,824.058 563.439,805.058 475.439,805.058 475.439,918.058 563.439,918.058 
		563.439,899.058 495.439,899.058 495.439,864.058 550.439,864.058 550.439,845.058 495.439,845.058 495.439,824.058 	"/>
	<polygon fill="#4D4D4D" points="450.963,805.058 409.537,881.842 368.104,805.058 354.439,805.058 354.439,918.058 
		373.439,918.058 373.439,857.582 407.035,918.058 412.033,918.058 444.439,857.582 444.439,918.058 464.439,918.058 
		464.439,805.058 	"/>
	<polygon fill="#4D4D4D" points="662.439,918.058 662.439,805.058 643.439,805.058 643.439,879.205 585.561,805.058 
		572.439,805.058 572.439,918.058 591.439,918.058 591.439,844.038 649.504,918.058 	"/>
</g>
<g>
	<path fill="#4D4D4D" d="M80.318,1048.928c-3.854,0.348-7.49,0.525-10.811,0.525c-34.387,0-50.051-19.823-50.051-38.24
		c0-18.506,15.664-38.424,50.051-38.424c3.371,0,7.006,0.177,10.805,0.524l7.102,0.649l1.309-19.433l-6.773-0.618
		c-4.279-0.393-8.35-0.582-12.441-0.582c-21.092,0-38.939,6.135-51.613,17.74C6.355,981.641,0,995.898,0,1011.213
		c0,15.309,6.359,29.537,17.908,40.062c12.66,11.539,30.506,17.636,51.6,17.636c4.043,0,8.111-0.189,12.439-0.581l6.775-0.614
		l-1.309-19.427L80.318,1048.928z"/>
	<path fill="#4D4D4D" d="M148.768,952.96c-32.121,0-58.252,26.132-58.252,58.253s26.131,58.251,58.252,58.251
		s58.252-26.13,58.252-58.251S180.889,952.96,148.768,952.96z M148.768,1050.005c-21.393,0-38.795-17.401-38.795-38.792
		c0-21.393,17.402-38.797,38.795-38.797s38.793,17.404,38.793,38.797C187.561,1032.604,170.16,1050.005,148.768,1050.005z"/>
	<path fill="#4D4D4D" d="M372.244,1048.928c-3.852,0.348-7.488,0.525-10.809,0.525c-34.387,0-50.049-19.823-50.049-38.24
		c0-18.506,15.662-38.424,50.049-38.424c3.371,0,7.006,0.177,10.805,0.524l7.1,0.649l1.309-19.433l-6.771-0.618
		c-4.279-0.393-8.352-0.582-12.441-0.582c-21.094,0-38.939,6.135-51.615,17.74c-11.537,10.57-17.895,24.827-17.895,40.143
		c0,15.309,6.359,29.537,17.908,40.062c12.662,11.539,30.506,17.636,51.602,17.636c4.043,0,8.109-0.189,12.439-0.581l6.773-0.614
		l-1.309-19.427L372.244,1048.928z"/>
	<polygon fill="#4D4D4D" points="457.439,954.058 457.439,994.058 409.439,994.058 409.439,954.058 390.439,954.058 
		390.439,1068.058 409.439,1068.058 409.439,1014.058 457.439,1014.058 457.439,1068.058 477.439,1068.058 477.439,954.058 	"/>
	<rect x="489.439" y="954.058" fill="#4D4D4D" width="19" height="114"/>
	<path fill="#4D4D4D" d="M688.312,972.79c3.621,0,8.661,0.204,11.792,0.519l8.335,0.77v-19.587l-7.007-0.578
		c-4.281-0.393-8.688-0.582-12.778-0.582c-47.762,0-69.684,29.812-69.684,57.512c0,27.613,21.666,57.331,69.428,57.331
		c4.031,0,8.735-0.19,13.067-0.58l6.974-0.573v-53.962h-19v35.652c-26-0.227-50.269-12.098-50.269-37.868
		C639.171,984.699,664.205,972.79,688.312,972.79z"/>
	<polygon fill="#4D4D4D" points="611.439,1068.058 611.439,954.058 592.439,954.058 592.439,1028.793 533.193,954.058 
		520.439,954.058 520.439,1068.058 540.439,1068.058 540.439,993.628 596.822,1068.058 	"/>
	<path fill="#4D4D4D" d="M243.146,954.058l-42.773,114h20.822l7.846-21h40.578l8.209,21h20.719l-42.746-114H243.146z
		 M236.285,1028.058l13.113-34.854l12.797,34.854H236.285z"/>
</g>
</svg>
